<svg xmlns="http://www.w3.org/2000/svg" width="247.551" height="50.395" viewBox="0 0 247.551 50.395">
  <g id="Group_16151" data-name="Group 16151" transform="translate(346 -5116)">
    <g id="Group_1747" data-name="Group 1747" transform="translate(-346 5116)">
      <path id="Path_2" data-name="Path 2" d="M877.657,470.648a11.214,11.214,0,0,0,5.148-14.91L872.784,435.4h0l-.006-.013h-24a1.267,1.267,0,0,0-1.267,1.267V446.6h18.3Z" transform="translate(-847.505 -435.388)" fill="#eb655b"/>
      <path id="Path_3" data-name="Path 3" d="M892.732,476.3q.486-.635.932-1.3t.859-1.38A25.2,25.2,0,0,0,876,436.039l9.32,18.911A14,14,0,0,1,873.445,475c-.245.013-.491.018-.739.018L858.715,475V449.815h-11.21V484.94a1.267,1.267,0,0,0,1.267,1.267h24.448a25.153,25.153,0,0,0,19.511-9.906" transform="translate(-847.505 -435.812)" fill="#1f385f"/>
      <path id="Path_4" data-name="Path 4" d="M993.754,435.388H983.293L970.58,461.183a27.841,27.841,0,0,1-3.73,13.39q-.462.8-.974,1.564a28.047,28.047,0,0,1-5.764,6.283,27.9,27.9,0,0,1-5.31,3.363h16.152l23.936-48.568a1.267,1.267,0,0,0-1.137-1.827" transform="translate(-917.407 -435.388)" fill="#eb655b"/>
      <path id="Path_5" data-name="Path 5" d="M1050.219,547.818h-8.675a1.267,1.267,0,0,0-1.267,1.267v8.676a1.267,1.267,0,0,0,1.267,1.267h8.675a1.267,1.267,0,0,0,1.267-1.267v-8.676a1.267,1.267,0,0,0-1.267-1.267" transform="translate(-973.091 -508.633)" fill="#eb655b"/>
    </g>
    <g id="Group_16137" data-name="Group 16137" transform="translate(-251.618 5130.196)">
      <path id="Path_101" data-name="Path 101" d="M852.609,641.238a5.642,5.642,0,0,1-1.912.342,2.919,2.919,0,0,1-3.192-3.132,3.114,3.114,0,0,1,3.363-3.214,3.929,3.929,0,0,1,1.556.285l-.2.656a3.165,3.165,0,0,0-1.374-.266,2.325,2.325,0,0,0-2.5,2.5,2.278,2.278,0,0,0,2.4,2.51,2.583,2.583,0,0,0,1.068-.167V638.9H850.56v-.643h2.048Z" transform="translate(-847.505 -619.616)" fill="#1f385f"/>
      <path id="Path_102" data-name="Path 102" d="M861.278,638.63h-2.411v2.247h2.7v.669h-3.5v-6.221h3.363v.669h-2.555v1.97h2.411Z" transform="translate(-850.874 -619.646)" fill="#1f385f"/>
      <path id="Path_103" data-name="Path 103" d="M865.991,641.546v-6.221h.883l1.993,3.144a18.074,18.074,0,0,1,1.109,2.026l.021-.009c-.073-.831-.088-1.589-.088-2.553v-2.608h.757v6.221h-.816l-1.977-3.154a20.316,20.316,0,0,1-1.157-2.082l-.028.01c.049.788.059,1.538.059,2.567v2.66Z" transform="translate(-853.406 -619.645)" fill="#1f385f"/>
      <path id="Path_104" data-name="Path 104" d="M879.394,638.63h-2.412v2.247h2.7v.669h-3.5v-6.221h3.362v.669h-2.555v1.97h2.412Z" transform="translate(-856.657 -619.646)" fill="#1f385f"/>
      <path id="Path_105" data-name="Path 105" d="M884.108,635.388a8.432,8.432,0,0,1,1.545-.134,2.565,2.565,0,0,1,1.8.512,1.556,1.556,0,0,1,.488,1.183,1.641,1.641,0,0,1-1.172,1.585v.024a1.575,1.575,0,0,1,.912,1.259,10.487,10.487,0,0,0,.478,1.708h-.833a8.271,8.271,0,0,1-.409-1.49c-.185-.852-.521-1.182-1.248-1.206h-.761v2.7h-.8Zm.8,2.831h.821c.86,0,1.4-.468,1.4-1.181,0-.808-.582-1.159-1.43-1.16a3.485,3.485,0,0,0-.8.071Z" transform="translate(-859.189 -619.623)" fill="#1f385f"/>
      <path id="Path_106" data-name="Path 106" d="M893.523,639.591l-.643,1.955h-.833l2.116-6.22h.966l2.125,6.22h-.859l-.666-1.955Zm2.042-.627-.616-1.791c-.135-.407-.229-.778-.32-1.135h-.022c-.089.363-.186.743-.308,1.124l-.613,1.8Z" transform="translate(-861.723 -619.645)" fill="#1f385f"/>
      <path id="Path_107" data-name="Path 107" d="M902.292,635.326h.807v5.543h2.66v.678h-3.467Z" transform="translate(-864.994 -619.646)" fill="#1f385f"/>
      <path id="Path_108" data-name="Path 108" d="M917.006,641.3a4,4,0,0,1-1.644.3,2.9,2.9,0,0,1-3.066-3.151,3.088,3.088,0,0,1,3.247-3.264,3.368,3.368,0,0,1,1.476.274l-.2.654a2.974,2.974,0,0,0-1.252-.255,2.311,2.311,0,0,0-2.426,2.567,2.255,2.255,0,0,0,2.383,2.494,3.263,3.263,0,0,0,1.318-.255Z" transform="translate(-868.187 -619.6)" fill="#1f385f"/>
      <path id="Path_109" data-name="Path 109" d="M926.819,638.326c0,2.134-1.3,3.274-2.886,3.274a2.85,2.85,0,0,1-2.8-3.158c0-1.971,1.22-3.266,2.88-3.266a2.837,2.837,0,0,1,2.8,3.15m-4.833.1c0,1.332.723,2.522,1.99,2.522s1.993-1.172,1.993-2.585c0-1.239-.646-2.532-1.983-2.532s-2,1.234-2,2.595" transform="translate(-871.01 -619.598)" fill="#1f385f"/>
      <path id="Path_110" data-name="Path 110" d="M932.273,641.546v-6.221h.883l1.993,3.144a18.131,18.131,0,0,1,1.11,2.026l.02-.009c-.073-.831-.088-1.589-.088-2.553v-2.608h.757v6.221h-.816l-1.977-3.154A20.319,20.319,0,0,1,933,636.31l-.028.01c.048.788.059,1.538.059,2.567v2.66Z" transform="translate(-874.564 -619.645)" fill="#1f385f"/>
      <path id="Path_111" data-name="Path 111" d="M943.312,636h-1.9v-.679h4.607V636h-1.9v5.542h-.807Z" transform="translate(-877.483 -619.645)" fill="#1f385f"/>
      <path id="Path_112" data-name="Path 112" d="M950.457,635.388a8.433,8.433,0,0,1,1.545-.134,2.565,2.565,0,0,1,1.8.512,1.556,1.556,0,0,1,.488,1.183,1.642,1.642,0,0,1-1.172,1.585v.024a1.575,1.575,0,0,1,.912,1.259,10.52,10.52,0,0,0,.478,1.708h-.833a8.291,8.291,0,0,1-.409-1.489c-.184-.852-.521-1.182-1.248-1.207h-.76v2.7h-.8Zm.8,2.831h.821c.86,0,1.4-.468,1.4-1.181,0-.808-.583-1.159-1.43-1.16a3.481,3.481,0,0,0-.795.071Z" transform="translate(-880.369 -619.623)" fill="#1f385f"/>
      <path id="Path_113" data-name="Path 113" d="M959.873,639.591l-.643,1.955H958.4l2.115-6.22h.966l2.125,6.22h-.859l-.666-1.955Zm2.042-.627-.616-1.791c-.135-.407-.228-.778-.32-1.135h-.022c-.089.363-.187.743-.308,1.124l-.614,1.8Z" transform="translate(-882.904 -619.645)" fill="#1f385f"/>
      <path id="Path_114" data-name="Path 114" d="M972.616,641.3a4,4,0,0,1-1.644.3,2.9,2.9,0,0,1-3.066-3.151,3.088,3.088,0,0,1,3.247-3.264,3.366,3.366,0,0,1,1.476.274l-.2.654a2.973,2.973,0,0,0-1.251-.255,2.311,2.311,0,0,0-2.427,2.567,2.255,2.255,0,0,0,2.384,2.494,3.262,3.262,0,0,0,1.318-.255Z" transform="translate(-885.939 -619.6)" fill="#1f385f"/>
      <path id="Path_115" data-name="Path 115" d="M978.8,636h-1.9v-.679h4.607V636h-1.9v5.542H978.8Z" transform="translate(-888.811 -619.645)" fill="#1f385f"/>
      <path id="Path_116" data-name="Path 116" d="M990.728,638.326c0,2.134-1.3,3.274-2.887,3.274a2.85,2.85,0,0,1-2.8-3.158c0-1.971,1.22-3.266,2.881-3.266a2.837,2.837,0,0,1,2.8,3.15m-4.833.1c0,1.332.723,2.522,1.99,2.522s1.994-1.172,1.994-2.585c0-1.239-.647-2.532-1.984-2.532s-2,1.234-2,2.595" transform="translate(-891.41 -619.598)" fill="#1f385f"/>
      <path id="Path_117" data-name="Path 117" d="M996.183,635.388a8.428,8.428,0,0,1,1.545-.134,2.565,2.565,0,0,1,1.8.512,1.559,1.559,0,0,1,.488,1.183,1.642,1.642,0,0,1-1.173,1.585v.024a1.573,1.573,0,0,1,.912,1.259,10.383,10.383,0,0,0,.479,1.708H999.4a8.25,8.25,0,0,1-.409-1.489c-.184-.852-.521-1.182-1.248-1.207h-.76v2.7h-.8Zm.8,2.831h.821c.86,0,1.4-.468,1.4-1.181,0-.808-.583-1.159-1.43-1.16a3.486,3.486,0,0,0-.8.071Z" transform="translate(-894.966 -619.623)" fill="#1f385f"/>
      <path id="Path_118" data-name="Path 118" d="M1011.791,641.3a4,4,0,0,1-1.644.3,2.9,2.9,0,0,1-3.066-3.151,3.088,3.088,0,0,1,3.247-3.264,3.369,3.369,0,0,1,1.476.274l-.2.654a2.976,2.976,0,0,0-1.252-.255,2.311,2.311,0,0,0-2.426,2.567,2.255,2.255,0,0,0,2.384,2.494,3.261,3.261,0,0,0,1.317-.255Z" transform="translate(-898.445 -619.6)" fill="#1f385f"/>
      <path id="Path_119" data-name="Path 119" d="M1021.6,638.326c0,2.134-1.3,3.274-2.887,3.274a2.85,2.85,0,0,1-2.8-3.158c0-1.971,1.219-3.266,2.881-3.266a2.837,2.837,0,0,1,2.8,3.15m-4.833.1c0,1.332.723,2.522,1.99,2.522s1.993-1.172,1.993-2.585c0-1.239-.647-2.532-1.983-2.532s-2,1.234-2,2.595" transform="translate(-901.267 -619.598)" fill="#1f385f"/>
      <path id="Path_120" data-name="Path 120" d="M1032.233,638.815c-.049-.864-.106-1.914-.1-2.683h-.025c-.215.722-.473,1.506-.782,2.358l-1.1,3.018h-.606l-1.014-2.963c-.3-.879-.538-1.677-.713-2.413h-.021c-.022.775-.063,1.811-.121,2.744l-.166,2.671h-.764l.434-6.221h1.026l1.059,3.011c.256.762.465,1.447.627,2.1h.024c.162-.63.38-1.315.657-2.095l1.11-3.012h1.027l.386,6.221h-.789Z" transform="translate(-904.746 -619.645)" fill="#1f385f"/>
      <path id="Path_121" data-name="Path 121" d="M1039.221,635.379a8.772,8.772,0,0,1,1.546-.125,2.554,2.554,0,0,1,1.745.517,1.7,1.7,0,0,1,.547,1.3,1.831,1.831,0,0,1-.483,1.331,2.573,2.573,0,0,1-1.9.682,2.615,2.615,0,0,1-.65-.058v2.5h-.8Zm.8,3a2.477,2.477,0,0,0,.667.07c.974,0,1.562-.479,1.562-1.328,0-.824-.587-1.226-1.468-1.226a3.851,3.851,0,0,0-.761.063Z" transform="translate(-908.704 -619.623)" fill="#1f385f"/>
      <path id="Path_122" data-name="Path 122" d="M1047.348,639.591l-.643,1.955h-.832l2.115-6.22h.966l2.125,6.22h-.859l-.667-1.955Zm2.044-.627-.617-1.791c-.135-.407-.228-.778-.319-1.135h-.022c-.089.363-.187.743-.308,1.124l-.614,1.8Z" transform="translate(-910.828 -619.645)" fill="#1f385f"/>
      <path id="Path_123" data-name="Path 123" d="M1056.118,641.546v-6.221H1057l1.993,3.144a18.05,18.05,0,0,1,1.11,2.026l.02-.009c-.073-.831-.087-1.589-.087-2.553v-2.608h.757v6.221h-.816L1058,638.393a20.467,20.467,0,0,1-1.157-2.082l-.028.01c.049.788.059,1.538.059,2.567v2.66Z" transform="translate(-914.098 -619.645)" fill="#1f385f"/>
      <path id="Path_124" data-name="Path 124" d="M1067.326,641.546v-2.637l-1.973-3.584h.92l.873,1.719c.237.471.428.848.619,1.283h.018c.172-.409.384-.816.624-1.289l.9-1.713h.911l-2.082,3.571v2.65Z" transform="translate(-917.046 -619.645)" fill="#1f385f"/>
      <path id="Path_125" data-name="Path 125" d="M847.505,612.67a20.791,20.791,0,0,1,3.229-.238,6.757,6.757,0,0,1,4.516,1.281,4.951,4.951,0,0,1,1.737,4.077,5.739,5.739,0,0,1-1.726,4.409,7.45,7.45,0,0,1-5.018,1.508,22.094,22.094,0,0,1-2.737-.145Zm2.023,9.385a7.688,7.688,0,0,0,1.129.054c2.628.014,4.192-1.445,4.192-4.25.01-2.444-1.4-3.853-3.94-3.853a6.785,6.785,0,0,0-1.381.119Z" transform="translate(-847.505 -612.337)" fill="#1f385f"/>
      <rect id="Rectangle_813" data-name="Rectangle 813" width="2.025" height="11.081" transform="translate(11.231 0.18)" fill="#1f385f"/>
      <path id="Path_126" data-name="Path 126" d="M879.612,619.119c-.068-1.431-.141-3.151-.133-4.661h-.046c-.366,1.358-.828,2.853-1.307,4.256l-1.627,4.795h-1.557l-1.469-4.729c-.434-1.422-.83-2.928-1.12-4.322h-.038c-.046,1.45-.114,3.222-.2,4.729l-.247,4.454h-1.886l.738-11.082h2.659l1.445,4.451c.4,1.309.752,2.624,1.018,3.859h.05c.3-1.21.677-2.564,1.107-3.867l1.537-4.442h2.626l.636,11.082h-1.973Z" transform="translate(-854.681 -612.378)" fill="#1f385f"/>
      <path id="Path_127" data-name="Path 127" d="M896.557,618.724h-4.176v3.25h4.67v1.666h-6.695V612.558h6.451v1.666h-4.425v2.848h4.176Z" transform="translate(-861.184 -612.378)" fill="#1f385f"/>
      <path id="Path_128" data-name="Path 128" d="M902.794,623.639V612.558h2.314l2.863,4.756a31,31,0,0,1,1.885,3.714l.04-.012c-.144-1.471-.181-2.9-.181-4.592v-3.867h1.871v11.081h-2.1l-2.891-4.875a38.1,38.1,0,0,1-1.987-3.823l-.053.011c.081,1.439.108,2.9.108,4.723v3.964Z" transform="translate(-865.154 -612.378)" fill="#1f385f"/>
      <path id="Path_129" data-name="Path 129" d="M918.857,621.352a5.616,5.616,0,0,0,2.678.706c1.292,0,2.014-.607,2.014-1.513,0-.837-.561-1.33-1.964-1.838-1.831-.65-3-1.632-3-3.22,0-1.815,1.518-3.182,3.922-3.182a5.883,5.883,0,0,1,2.657.549l-.485,1.633a4.788,4.788,0,0,0-2.213-.526c-1.285,0-1.831.684-1.831,1.335,0,.85.641,1.249,2.121,1.814,1.924.735,2.85,1.7,2.85,3.293,0,1.783-1.343,3.33-4.2,3.33a6.439,6.439,0,0,1-3-.7Z" transform="translate(-870.139 -612.297)" fill="#1f385f"/>
      <rect id="Rectangle_814" data-name="Rectangle 814" width="2.025" height="11.081" transform="translate(57.29 0.18)" fill="#1f385f"/>
      <path id="Path_130" data-name="Path 130" d="M947.6,617.9c0,3.711-2.249,5.832-5.3,5.832-3.13,0-5.113-2.39-5.113-5.636,0-3.4,2.151-5.807,5.276-5.807,3.232,0,5.139,2.442,5.139,5.61m-8.277.155c0,2.261,1.142,4.058,3.078,4.058,1.954,0,3.062-1.819,3.062-4.138,0-2.091-1.038-4.066-3.057-4.066-2,0-3.082,1.87-3.082,4.146" transform="translate(-876.134 -612.293)" fill="#1f385f"/>
      <path id="Path_131" data-name="Path 131" d="M955.041,623.639V612.558h2.313l2.863,4.756a31.155,31.155,0,0,1,1.886,3.714l.039-.012c-.142-1.471-.181-2.9-.181-4.592v-3.867h1.872v11.081h-2.1l-2.891-4.875a38,38,0,0,1-1.987-3.823l-.053.011c.081,1.439.108,2.9.108,4.723v3.964Z" transform="translate(-881.833 -612.378)" fill="#1f385f"/>
      <path id="Path_132" data-name="Path 132" d="M973.208,620.508l-.945,3.132H970.17l3.556-11.082H976.3l3.6,11.082h-2.174l-1-3.132Zm3.186-1.53-.873-2.73c-.213-.687-.4-1.441-.563-2.084h-.037c-.16.651-.33,1.417-.526,2.076l-.856,2.737Z" transform="translate(-886.662 -612.378)" fill="#1f385f"/>
      <path id="Path_133" data-name="Path 133" d="M986.731,612.558h2.025v9.383h4.557v1.7h-6.582Z" transform="translate(-891.949 -612.378)" fill="#1f385f"/>
      <path id="Path_134" data-name="Path 134" d="M1004.815,623.639l-3.588-11.081h2.209l1.512,5.038c.427,1.4.8,2.7,1.084,4.035h.036c.293-1.307.7-2.658,1.126-4.005l1.617-5.068h2.154l-3.831,11.081Z" transform="translate(-896.576 -612.378)" fill="#1f385f"/>
      <rect id="Rectangle_815" data-name="Rectangle 815" width="2.025" height="11.081" transform="translate(115.584 0.18)" fill="#1f385f"/>
      <path id="Path_135" data-name="Path 135" d="M1023.4,621.352a5.615,5.615,0,0,0,2.678.706c1.292,0,2.014-.607,2.014-1.513,0-.837-.561-1.33-1.964-1.838-1.831-.65-3-1.632-3-3.22,0-1.815,1.518-3.182,3.922-3.182a5.879,5.879,0,0,1,2.656.549l-.484,1.633a4.792,4.792,0,0,0-2.214-.526c-1.285,0-1.831.684-1.831,1.335,0,.85.641,1.249,2.121,1.814,1.924.735,2.85,1.7,2.85,3.293,0,1.783-1.343,3.33-4.2,3.33a6.438,6.438,0,0,1-3-.7Z" transform="translate(-903.51 -612.297)" fill="#1f385f"/>
      <rect id="Rectangle_816" data-name="Rectangle 816" width="2.025" height="11.081" transform="translate(128.459 0.18)" fill="#1f385f"/>
      <path id="Path_136" data-name="Path 136" d="M1052.144,617.9c0,3.711-2.249,5.832-5.3,5.832-3.13,0-5.113-2.39-5.113-5.636,0-3.4,2.151-5.807,5.276-5.807,3.233,0,5.139,2.442,5.139,5.61m-8.276.155c0,2.261,1.142,4.058,3.077,4.058,1.955,0,3.061-1.819,3.061-4.138,0-2.091-1.037-4.066-3.056-4.066-2,0-3.082,1.87-3.082,4.146" transform="translate(-909.505 -612.293)" fill="#1f385f"/>
      <path id="Path_137" data-name="Path 137" d="M1059.581,623.639V612.558h2.313l2.862,4.756a30.951,30.951,0,0,1,1.886,3.714l.04-.012c-.142-1.471-.181-2.9-.181-4.592v-3.867h1.872v11.081h-2.1l-2.891-4.875a37.841,37.841,0,0,1-1.986-3.823l-.053.011c.081,1.439.106,2.9.106,4.723v3.964Z" transform="translate(-915.204 -612.378)" fill="#1f385f"/>
    </g>
  </g>
</svg>
