<svg xmlns="http://www.w3.org/2000/svg" width="99.093" height="92.149" viewBox="0 0 99.093 92.149">
  <g id="Group_1" data-name="Group 1" transform="translate(-847.505 475.612)">
    <path id="Path_2" data-name="Path 2" d="M885.609,479.946a14.172,14.172,0,0,0,6.506-18.842L879.45,435.4h0l-.008-.016H849.107a1.6,1.6,0,0,0-1.6,1.6v12.565h23.124Z" transform="translate(0 -911)" fill="#eb655b"/>
    <path id="Path_3" data-name="Path 3" d="M904.658,486.918q.614-.8,1.178-1.648t1.086-1.745a31.844,31.844,0,0,0-23.4-47.487l11.778,23.9a17.693,17.693,0,0,1-15.01,25.334c-.309.016-.62.023-.934.023l-17.681-.023V453.448H847.505v44.388a1.6,1.6,0,0,0,1.6,1.6H880a31.786,31.786,0,0,0,24.656-12.518" transform="translate(0 -911.364)" fill="#1f385f"/>
    <path id="Path_4" data-name="Path 4" d="M1004.026,435.388h-13.22l-16.065,32.6a35.183,35.183,0,0,1-4.714,16.921q-.583,1.011-1.231,1.977a35.441,35.441,0,0,1-7.284,7.94,35.267,35.267,0,0,1-6.71,4.25h20.411l30.248-61.375a1.6,1.6,0,0,0-1.436-2.309" transform="translate(-60.04 -911)" fill="#eb655b"/>
    <path id="Path_5" data-name="Path 5" d="M1052.841,547.818h-10.962a1.6,1.6,0,0,0-1.6,1.6v10.964a1.6,1.6,0,0,0,1.6,1.6h10.962a1.6,1.6,0,0,0,1.6-1.6V549.419a1.6,1.6,0,0,0-1.6-1.6" transform="translate(-107.869 -973.912)" fill="#eb655b"/>
    <path id="Path_6" data-name="Path 6" d="M850.807,639.118a3.65,3.65,0,0,1-1.237.221,1.888,1.888,0,0,1-2.065-2.026,2.014,2.014,0,0,1,2.176-2.079,2.542,2.542,0,0,1,1.007.185l-.13.424a2.047,2.047,0,0,0-.889-.172,1.5,1.5,0,0,0-1.617,1.616,1.474,1.474,0,0,0,1.553,1.624,1.67,1.67,0,0,0,.691-.108v-1.2h-.814v-.416h1.325Z" transform="translate(0 -1022.827)" fill="#eb655b"/>
    <path id="Path_7" data-name="Path 7" d="M860.141,637.464h-1.56v1.454h1.745v.433h-2.267v-4.025h2.176v.433h-1.653v1.275h1.56Z" transform="translate(-5.905 -1022.879)" fill="#eb655b"/>
    <path id="Path_8" data-name="Path 8" d="M865.991,639.35v-4.025h.571l1.29,2.034a11.691,11.691,0,0,1,.718,1.311l.013-.006c-.047-.537-.057-1.028-.057-1.652v-1.687h.49v4.025h-.528l-1.279-2.04a13.134,13.134,0,0,1-.749-1.347l-.018.006c.031.51.038.995.038,1.66v1.721Z" transform="translate(-10.344 -1022.878)" fill="#eb655b"/>
    <path id="Path_9" data-name="Path 9" d="M878.258,637.464H876.7v1.454h1.745v.433h-2.267v-4.025h2.175v.433H876.7v1.275h1.561Z" transform="translate(-16.043 -1022.879)" fill="#eb655b"/>
    <path id="Path_10" data-name="Path 10" d="M884.108,635.341a5.46,5.46,0,0,1,1-.087,1.659,1.659,0,0,1,1.166.331,1.007,1.007,0,0,1,.316.765,1.062,1.062,0,0,1-.758,1.025v.015a1.019,1.019,0,0,1,.59.815,6.782,6.782,0,0,0,.309,1.1h-.539a5.359,5.359,0,0,1-.264-.964c-.12-.551-.337-.765-.808-.781h-.492v1.744h-.519Zm.519,1.832h.531c.556,0,.909-.3.909-.764,0-.523-.377-.75-.925-.75a2.256,2.256,0,0,0-.515.046Z" transform="translate(-20.482 -1022.839)" fill="#eb655b"/>
    <path id="Path_11" data-name="Path 11" d="M893,638.085l-.416,1.265h-.539l1.369-4.024h.625l1.374,4.024h-.556l-.431-1.265Zm1.321-.406-.4-1.158c-.088-.263-.148-.5-.207-.734H893.7c-.057.235-.121.481-.2.727l-.4,1.166Z" transform="translate(-24.924 -1022.879)" fill="#eb655b"/>
    <path id="Path_12" data-name="Path 12" d="M902.292,635.326h.522v3.586h1.721v.439h-2.243Z" transform="translate(-30.657 -1022.879)" fill="#eb655b"/>
    <path id="Path_13" data-name="Path 13" d="M915.343,639.141a2.589,2.589,0,0,1-1.064.192,1.879,1.879,0,0,1-1.984-2.039,2,2,0,0,1,2.1-2.111,2.179,2.179,0,0,1,.955.177l-.128.423a1.923,1.923,0,0,0-.81-.165,1.5,1.5,0,0,0-1.57,1.66,1.459,1.459,0,0,0,1.542,1.614,2.111,2.111,0,0,0,.853-.165Z" transform="translate(-36.255 -1022.799)" fill="#eb655b"/>
    <path id="Path_14" data-name="Path 14" d="M924.813,637.214a1.886,1.886,0,0,1-1.867,2.118,1.844,1.844,0,0,1-1.809-2.043A1.909,1.909,0,0,1,923,635.176a1.835,1.835,0,0,1,1.813,2.038m-3.127.063c0,.861.468,1.632,1.287,1.632s1.29-.758,1.29-1.672c0-.8-.418-1.638-1.283-1.638s-1.294.8-1.294,1.679" transform="translate(-41.202 -1022.795)" fill="#eb655b"/>
    <path id="Path_15" data-name="Path 15" d="M932.273,639.35v-4.025h.571l1.29,2.034a11.724,11.724,0,0,1,.718,1.311l.013-.006c-.047-.537-.057-1.028-.057-1.652v-1.687h.49v4.025h-.528l-1.279-2.04a13.136,13.136,0,0,1-.749-1.347l-.018.006c.031.51.038.995.038,1.66v1.721Z" transform="translate(-47.433 -1022.878)" fill="#eb655b"/>
    <path id="Path_16" data-name="Path 16" d="M942.643,635.765h-1.226v-.439h2.98v.439h-1.232v3.585h-.522Z" transform="translate(-52.55 -1022.879)" fill="#eb655b"/>
    <path id="Path_17" data-name="Path 17" d="M950.457,635.341a5.462,5.462,0,0,1,1-.087,1.659,1.659,0,0,1,1.166.331,1.006,1.006,0,0,1,.316.765,1.062,1.062,0,0,1-.758,1.025v.015a1.019,1.019,0,0,1,.59.815,6.8,6.8,0,0,0,.309,1.1h-.539a5.364,5.364,0,0,1-.264-.963c-.119-.551-.337-.765-.808-.781h-.492v1.744h-.519Zm.519,1.832h.531c.556,0,.909-.3.909-.764,0-.523-.377-.75-.925-.75a2.253,2.253,0,0,0-.514.046Z" transform="translate(-57.608 -1022.839)" fill="#eb655b"/>
    <path id="Path_18" data-name="Path 18" d="M959.352,638.085l-.416,1.265H958.4l1.368-4.024h.625l1.374,4.024h-.556l-.431-1.265Zm1.321-.406-.4-1.158c-.087-.263-.148-.5-.207-.734h-.014c-.058.235-.121.481-.2.727l-.4,1.166Z" transform="translate(-62.052 -1022.879)" fill="#eb655b"/>
    <path id="Path_19" data-name="Path 19" d="M970.953,639.141a2.587,2.587,0,0,1-1.064.192,1.879,1.879,0,0,1-1.984-2.039,2,2,0,0,1,2.1-2.111,2.177,2.177,0,0,1,.955.177l-.128.423a1.923,1.923,0,0,0-.81-.165,1.5,1.5,0,0,0-1.57,1.66A1.459,1.459,0,0,0,970,638.892a2.11,2.11,0,0,0,.853-.165Z" transform="translate(-67.373 -1022.799)" fill="#eb655b"/>
    <path id="Path_20" data-name="Path 20" d="M978.13,635.765H976.9v-.439h2.98v.439h-1.232v3.585h-.522Z" transform="translate(-72.407 -1022.879)" fill="#eb655b"/>
    <path id="Path_21" data-name="Path 21" d="M988.722,637.214a1.886,1.886,0,0,1-1.868,2.118,1.844,1.844,0,0,1-1.809-2.043,1.909,1.909,0,0,1,1.864-2.113,1.835,1.835,0,0,1,1.813,2.038m-3.127.063c0,.861.468,1.632,1.287,1.632s1.29-.758,1.29-1.672c0-.8-.418-1.638-1.283-1.638s-1.294.8-1.294,1.679" transform="translate(-76.963 -1022.795)" fill="#eb655b"/>
    <path id="Path_22" data-name="Path 22" d="M996.183,635.341a5.458,5.458,0,0,1,1-.087,1.659,1.659,0,0,1,1.166.331,1.008,1.008,0,0,1,.316.765,1.062,1.062,0,0,1-.759,1.025v.015a1.018,1.018,0,0,1,.59.815,6.726,6.726,0,0,0,.31,1.1h-.539a5.329,5.329,0,0,1-.264-.963c-.119-.551-.337-.765-.808-.781H996.7v1.744h-.519Zm.519,1.832h.531c.556,0,.909-.3.909-.764,0-.523-.377-.75-.925-.75a2.257,2.257,0,0,0-.515.046Z" transform="translate(-83.195 -1022.839)" fill="#eb655b"/>
    <path id="Path_23" data-name="Path 23" d="M1010.128,639.141a2.586,2.586,0,0,1-1.064.192,1.879,1.879,0,0,1-1.984-2.039,2,2,0,0,1,2.1-2.111,2.179,2.179,0,0,1,.955.177l-.128.423a1.926,1.926,0,0,0-.81-.165,1.5,1.5,0,0,0-1.57,1.66,1.459,1.459,0,0,0,1.542,1.614,2.11,2.11,0,0,0,.852-.165Z" transform="translate(-89.294 -1022.799)" fill="#eb655b"/>
    <path id="Path_24" data-name="Path 24" d="M1019.6,637.214a1.886,1.886,0,0,1-1.868,2.118,1.844,1.844,0,0,1-1.809-2.043,1.909,1.909,0,0,1,1.864-2.113,1.835,1.835,0,0,1,1.813,2.038m-3.127.063c0,.861.468,1.632,1.287,1.632s1.29-.758,1.29-1.672c0-.8-.418-1.638-1.283-1.638s-1.294.8-1.294,1.679" transform="translate(-94.241 -1022.795)" fill="#eb655b"/>
    <path id="Path_25" data-name="Path 25" d="M1030.322,637.583c-.032-.559-.068-1.238-.065-1.736h-.016c-.139.467-.306.974-.506,1.526l-.711,1.952h-.392l-.656-1.917c-.192-.569-.348-1.085-.461-1.561h-.013c-.014.5-.041,1.172-.078,1.775l-.108,1.728h-.494l.281-4.025h.664l.685,1.948c.166.493.3.936.406,1.356h.016c.105-.407.246-.851.425-1.355l.718-1.948h.665l.249,4.025h-.511Z" transform="translate(-100.34 -1022.879)" fill="#eb655b"/>
    <path id="Path_26" data-name="Path 26" d="M1039.221,635.335a5.674,5.674,0,0,1,1-.081,1.653,1.653,0,0,1,1.129.335,1.1,1.1,0,0,1,.354.843,1.184,1.184,0,0,1-.313.861,1.665,1.665,0,0,1-1.23.441,1.692,1.692,0,0,1-.421-.037v1.614h-.519Zm.519,1.938a1.6,1.6,0,0,0,.431.045c.63,0,1.011-.31,1.011-.859,0-.533-.38-.793-.95-.793a2.5,2.5,0,0,0-.492.041Z" transform="translate(-107.278 -1022.839)" fill="#eb655b"/>
    <path id="Path_27" data-name="Path 27" d="M1046.827,638.085l-.416,1.265h-.538l1.368-4.024h.625l1.375,4.024h-.556l-.431-1.265Zm1.322-.406-.4-1.158c-.087-.263-.148-.5-.207-.734h-.014c-.058.235-.121.481-.2.727l-.4,1.166Z" transform="translate(-111.001 -1022.879)" fill="#eb655b"/>
    <path id="Path_28" data-name="Path 28" d="M1056.118,639.35v-4.025h.572l1.289,2.034a11.676,11.676,0,0,1,.718,1.311l.013-.006c-.047-.537-.056-1.028-.056-1.652v-1.687h.489v4.025h-.528l-1.279-2.04a13.215,13.215,0,0,1-.749-1.347l-.018.006c.031.51.038.995.038,1.66v1.721Z" transform="translate(-116.733 -1022.878)" fill="#eb655b"/>
    <path id="Path_29" data-name="Path 29" d="M1066.629,639.35v-1.706l-1.276-2.318h.6l.565,1.112c.153.3.277.549.4.83h.011c.111-.265.248-.528.4-.834l.581-1.109h.589l-1.347,2.311v1.714Z" transform="translate(-121.901 -1022.878)" fill="#eb655b"/>
    <path id="Path_30" data-name="Path 30" d="M847.505,612.586a13.451,13.451,0,0,1,2.089-.154,4.371,4.371,0,0,1,2.921.828,3.2,3.2,0,0,1,1.123,2.638,3.713,3.713,0,0,1-1.116,2.852,4.82,4.82,0,0,1-3.247.976,14.294,14.294,0,0,1-1.771-.094Zm1.309,6.072a4.979,4.979,0,0,0,.73.035,2.462,2.462,0,0,0,2.712-2.75,2.282,2.282,0,0,0-2.549-2.493,4.387,4.387,0,0,0-.893.077Z" transform="translate(0 -1010.068)" fill="#eb655b"/>
    <rect id="Rectangle_3" data-name="Rectangle 3" width="1.31" height="7.169" transform="translate(854.771 -397.581)" fill="#eb655b"/>
    <path id="Path_31" data-name="Path 31" d="M876.213,616.8c-.044-.926-.091-2.039-.086-3.016h-.03c-.236.879-.536,1.846-.846,2.754l-1.053,3.1h-1.007l-.951-3.06c-.281-.92-.537-1.894-.725-2.8h-.024c-.03.938-.074,2.084-.128,3.059l-.16,2.881h-1.22l.477-7.169h1.72l.935,2.88c.257.847.487,1.7.658,2.5h.032c.192-.783.438-1.659.716-2.5l.994-2.874h1.7l.412,7.169h-1.276Z" transform="translate(-12.579 -1010.139)" fill="#eb655b"/>
    <path id="Path_32" data-name="Path 32" d="M894.367,616.547h-2.7v2.1h3.021v1.078h-4.331v-7.169h4.173v1.078h-2.863v1.843h2.7Z" transform="translate(-23.978 -1010.138)" fill="#eb655b"/>
    <path id="Path_33" data-name="Path 33" d="M902.794,619.727v-7.169h1.5l1.852,3.077a20.051,20.051,0,0,1,1.219,2.4l.026-.008c-.093-.952-.117-1.875-.117-2.971v-2.5h1.211v7.169h-1.357l-1.87-3.154a24.669,24.669,0,0,1-1.285-2.473l-.034.007c.052.931.07,1.878.07,3.055v2.565Z" transform="translate(-30.938 -1010.139)" fill="#eb655b"/>
    <path id="Path_34" data-name="Path 34" d="M918.7,618.157a3.632,3.632,0,0,0,1.733.457c.836,0,1.3-.392,1.3-.979,0-.541-.363-.86-1.27-1.189-1.184-.421-1.941-1.056-1.941-2.083,0-1.174.982-2.059,2.537-2.059a3.805,3.805,0,0,1,1.719.355l-.314,1.057a3.1,3.1,0,0,0-1.432-.34c-.832,0-1.184.442-1.184.864,0,.55.415.808,1.372,1.174,1.245.476,1.844,1.1,1.844,2.13,0,1.154-.869,2.154-2.719,2.154a4.166,4.166,0,0,1-1.938-.456Z" transform="translate(-39.676 -1009.997)" fill="#eb655b"/>
    <rect id="Rectangle_4" data-name="Rectangle 4" width="1.31" height="7.169" transform="translate(884.569 -397.581)" fill="#eb655b"/>
    <path id="Path_35" data-name="Path 35" d="M943.927,615.923c0,2.4-1.455,3.773-3.431,3.773-2.025,0-3.308-1.546-3.308-3.646a3.44,3.44,0,0,1,3.413-3.757,3.308,3.308,0,0,1,3.325,3.63m-5.355.1c0,1.463.739,2.625,1.991,2.625s1.981-1.177,1.981-2.677c0-1.353-.671-2.63-1.978-2.63s-1.994,1.21-1.994,2.682" transform="translate(-50.184 -1009.99)" fill="#eb655b"/>
    <path id="Path_36" data-name="Path 36" d="M955.041,619.727v-7.169h1.5l1.852,3.077a20.143,20.143,0,0,1,1.22,2.4l.026-.008c-.092-.952-.117-1.875-.117-2.971v-2.5h1.211v7.169h-1.358l-1.87-3.154a24.6,24.6,0,0,1-1.285-2.473l-.034.007c.052.931.07,1.878.07,3.055v2.565Z" transform="translate(-60.174 -1010.139)" fill="#eb655b"/>
    <path id="Path_37" data-name="Path 37" d="M972.135,617.7l-.611,2.026H970.17l2.3-7.169h1.667l2.329,7.169h-1.406l-.649-2.026Zm2.061-.99-.565-1.766c-.138-.444-.256-.932-.364-1.348h-.024c-.1.421-.214.917-.34,1.343l-.554,1.771Z" transform="translate(-68.639 -1010.139)" fill="#eb655b"/>
    <path id="Path_38" data-name="Path 38" d="M986.731,612.558h1.31v6.07h2.948v1.1h-4.258Z" transform="translate(-77.906 -1010.139)" fill="#eb655b"/>
    <path id="Path_39" data-name="Path 39" d="M1003.548,619.727l-2.321-7.169h1.429l.978,3.26c.277.9.516,1.744.7,2.61h.023c.19-.846.45-1.72.729-2.591l1.046-3.279h1.393l-2.478,7.169Z" transform="translate(-86.018 -1010.139)" fill="#eb655b"/>
    <rect id="Rectangle_5" data-name="Rectangle 5" width="1.31" height="7.169" transform="translate(922.282 -397.581)" fill="#eb655b"/>
    <path id="Path_40" data-name="Path 40" d="M1023.238,618.157a3.632,3.632,0,0,0,1.733.457c.836,0,1.3-.392,1.3-.979,0-.541-.363-.86-1.27-1.189-1.184-.421-1.941-1.056-1.941-2.083,0-1.174.982-2.059,2.537-2.059a3.8,3.8,0,0,1,1.718.355l-.313,1.057a3.1,3.1,0,0,0-1.432-.34c-.832,0-1.184.442-1.184.864,0,.55.415.808,1.372,1.174,1.245.476,1.844,1.1,1.844,2.13,0,1.154-.869,2.154-2.719,2.154a4.165,4.165,0,0,1-1.938-.456Z" transform="translate(-98.172 -1009.997)" fill="#eb655b"/>
    <rect id="Rectangle_6" data-name="Rectangle 6" width="1.31" height="7.169" transform="translate(930.612 -397.581)" fill="#eb655b"/>
    <path id="Path_41" data-name="Path 41" d="M1048.467,615.923c0,2.4-1.455,3.773-3.43,3.773-2.025,0-3.308-1.546-3.308-3.646a3.44,3.44,0,0,1,3.413-3.757,3.308,3.308,0,0,1,3.324,3.63m-5.354.1c0,1.463.739,2.625,1.991,2.625s1.98-1.177,1.98-2.677c0-1.353-.671-2.63-1.977-2.63s-1.994,1.21-1.994,2.682" transform="translate(-108.682 -1009.99)" fill="#eb655b"/>
    <path id="Path_42" data-name="Path 42" d="M1059.581,619.727v-7.169h1.5l1.851,3.077a20.068,20.068,0,0,1,1.22,2.4l.026-.008c-.092-.952-.117-1.875-.117-2.971v-2.5h1.211v7.169h-1.357l-1.871-3.154a24.526,24.526,0,0,1-1.285-2.473l-.034.007c.052.931.069,1.878.069,3.055v2.565Z" transform="translate(-118.671 -1010.139)" fill="#eb655b"/>
  </g>
</svg>
