<svg xmlns="http://www.w3.org/2000/svg" width="131.587" height="84.589" viewBox="0 0 131.587 84.589">
  <g id="Group_50198" data-name="Group 50198" transform="translate(-2770.995 2426.074)">
    <path id="Path_142353" data-name="Path 142353" d="M898.116,494.573a18.824,18.824,0,0,0,8.642-25.027L889.936,435.41h0l-.01-.022H849.632a2.127,2.127,0,0,0-2.127,2.126V454.2h30.714Z" transform="translate(1923.49 -2861.462)" fill="#eb655b"/>
    <path id="Path_142354" data-name="Path 142354" d="M923.419,503.62q.816-1.066,1.565-2.189t1.442-2.317a42.3,42.3,0,0,0-31.087-63.075l15.644,31.743a23.5,23.5,0,0,1-19.937,33.65c-.411.022-.824.031-1.24.031l-23.484-.031V459.162H847.5v58.959a2.127,2.127,0,0,0,2.127,2.127h41.037a42.22,42.22,0,0,0,32.75-16.628" transform="translate(1923.49 -2861.733)" fill="#1f385f"/>
    <path id="Path_142355" data-name="Path 142355" d="M1020.183,435.388h-17.559l-21.339,43.3a46.733,46.733,0,0,1-6.261,22.475q-.775,1.343-1.635,2.625a47.076,47.076,0,0,1-9.674,10.546,46.844,46.844,0,0,1-8.912,5.645h27.111l40.177-81.522a2.127,2.127,0,0,0-1.908-3.067" transform="translate(1878.962 -2861.462)" fill="#eb655b"/>
    <path id="Path_142356" data-name="Path 142356" d="M1056.965,547.818H1042.4a2.127,2.127,0,0,0-2.127,2.127v14.563a2.127,2.127,0,0,0,2.127,2.127h14.561a2.126,2.126,0,0,0,2.126-2.127V549.945a2.127,2.127,0,0,0-2.126-2.127" transform="translate(1843.491 -2908.12)" fill="#eb655b"/>
  </g>
</svg>
